<svg width="9768" height="1764" viewBox="0 0 9768 1764" fill="none" xmlns="http://www.w3.org/2000/svg">
<g clip-path="url(#clip0)">
<path d="M1075.25 945.184C1096.76 945.184 1114.22 962.631 1114.22 984.131C1114.22 1005.64 1096.76 1023.09 1075.25 1023.09C1053.75 1023.09 1036.31 1005.64 1036.31 984.131C1036.31 962.631 1053.75 945.184 1075.25 945.184Z" fill="white"/>
<path d="M1233.74 983.768C1248.46 983.768 1260.38 995.694 1260.38 1010.4C1260.38 1025.11 1248.46 1037.03 1233.74 1037.03C1219.03 1037.03 1207.11 1025.11 1207.11 1010.4C1207.11 995.694 1219.03 983.768 1233.74 983.768Z" fill="white"/>
<path d="M1381.78 1004.49C1391.77 1004.49 1399.87 1012.58 1399.87 1022.57C1399.87 1032.56 1391.77 1040.65 1381.78 1040.65C1371.81 1040.65 1363.71 1032.56 1363.71 1022.57C1363.71 1012.58 1371.81 1004.49 1381.78 1004.49Z" fill="white"/>
<path d="M1386.03 1041.21C1376.05 1041.21 1367.96 1033.12 1367.96 1023.13C1367.96 1013.14 1376.05 1005.05 1386.03 1005.05C1396.02 1005.05 1404.11 1013.14 1404.11 1023.13C1404.11 1033.12 1396.02 1041.21 1386.03 1041.21ZM1235.99 1037.44C1221.28 1037.44 1209.36 1025.52 1209.36 1010.81C1209.36 996.106 1221.28 984.18 1235.99 984.18C1250.71 984.18 1262.63 996.106 1262.63 1010.81C1262.63 1025.52 1250.71 1037.44 1235.99 1037.44ZM1075.41 1023.13C1053.91 1023.13 1036.47 1005.69 1036.47 984.18C1036.47 962.68 1053.91 945.233 1075.41 945.233C1096.92 945.233 1114.38 962.68 1114.38 984.18C1114.38 1005.69 1096.92 1023.13 1075.41 1023.13ZM797.779 1018.62C754.384 1026.73 708.85 1016 666.604 1000.56L802.307 892.462C824.892 899.003 845.552 906.838 862.134 918.787C889.885 940.868 847.141 1008.81 797.779 1018.62ZM588.431 967.232C567.377 956.652 547.843 944.891 530.23 932.149L664.554 848.736C702.456 869.539 747.377 877.909 787.895 888.512L636.545 988.708C633.079 987.254 629.626 985.779 626.224 984.319C613.19 979.038 600.56 973.335 588.431 967.232ZM462.269 864.035C459.43 859.761 456.736 855.439 454.326 851.068C456.546 845.013 460.916 840.011 466.456 835.494C466.456 835.494 561.944 774.349 600.465 796.803C609.491 806.5 618.876 815.339 628.59 823.401C636.887 830.297 645.443 836.595 654.222 842.439L507.033 913.841C489.085 898.307 473.944 881.616 462.269 864.035ZM1653.84 1304.63C1582.83 1251.64 1512.1 1198.85 1440.54 1145.43C1440.57 1145.42 1549.95 1122.74 1629.26 1155.41C1632.95 1150.78 1636.14 1142 1636.14 1142C1595.47 1117.19 1578.77 1081.25 1595.75 1045.67C1607.12 1020.72 1622.51 1000.04 1639.19 980.853C1644.74 974.454 1650.46 968.219 1656.24 962.016C1667.78 948.299 1681.48 935.816 1693.83 922.347L1693.86 922.308L1781.32 828.776L1693.08 720.279C1693.08 720.279 1620.44 792.545 1525.96 848.801C1338.06 951.328 1223.22 879.641 1053.15 771.565C883.03 663.456 710.758 734.136 710.758 734.136L226.415 403.917L86.5 383.244L422.219 692.061C428.947 712.783 428.436 733.246 419.588 758.435C398.123 813.267 336.114 844.285 317.034 894.356C301.945 932.079 310.748 979.343 336.76 1014.41C356.195 1029.07 375.135 1043.6 395.264 1055.96C397.832 1057.54 400.393 1059.14 403.013 1060.65C409.841 1064.57 416.774 1068.2 423.736 1071.71C492.386 1106.14 567.693 1120.68 642.869 1133.86C757.108 1153.87 872.583 1151.54 987.933 1148.41C1115.41 1144.98 1242.89 1141.17 1370.39 1137.53C1370.79 1139.19 1371.16 1140.85 1371.54 1142.52C1301.98 1150.43 1232.42 1158.34 1154.3 1167.22C1127.34 1167.97 1026.03 1179.31 999.055 1180.04C883.707 1183.16 768.239 1185.5 654 1165.48C579.343 1152.39 467.278 1137 339.694 1059.2L335.729 1061.87C360.525 1080.15 383.887 1099.01 409.084 1114.49C411.656 1116.07 414.211 1117.68 416.837 1119.19C423.666 1123.11 430.586 1126.75 437.56 1130.24C506.204 1164.67 581.524 1179.22 656.7 1192.4C770.928 1212.41 886.129 1217.03 1001.48 1213.9C1031.4 1213.11 1096.87 1209.6 1151.76 1207.24L1393.2 1332.95L1809.93 1565.31L2037.28 1574L1653.84 1304.63Z" fill="#154554"/>
<path d="M978.736 311.54C1258.76 311.54 1501.95 468.927 1624.83 700.022C1632.6 694.372 1640.05 688.771 1647.12 683.283C1527.53 403.994 1250.19 208.304 927.123 208.304C706.296 208.304 506.856 299.755 364.53 446.813L469.297 518.238C600.992 390.331 780.656 311.54 978.736 311.54Z" fill="url(#paint0_linear)"/>
<path d="M150.164 981.541C150.164 1413.91 500.681 1764.4 933.078 1764.4C941.837 1764.4 950.579 1764.23 959.289 1763.96C567.168 1750.55 253.407 1428.52 253.407 1033.17C253.407 904.086 286.899 782.832 345.6 677.573L253.4 592.76C187.724 707.311 150.164 840.027 150.164 981.541Z" fill="url(#paint1_linear)"/>
<path d="M2060.29 646.731V632.308C2060.29 605.166 2065.89 577.293 2077.09 548.69C2088.28 519.966 2103.99 495.136 2124.19 474.201C2167.28 429.41 2220.11 407.014 2282.68 407.014C2300.45 407.014 2322.48 409.692 2348.77 415.048C2375.06 420.403 2397.89 423.081 2417.24 423.081C2437.81 423.081 2448.1 450.588 2448.1 505.603C2448.1 519.844 2444.63 526.964 2437.69 526.964C2433.19 526.964 2423.02 518.809 2407.2 502.5C2391.25 486.068 2373.6 473.105 2354.25 463.612C2335.02 453.996 2313.53 449.189 2289.8 449.189C2265.7 449.189 2245.06 453.814 2227.9 463.064C2172.27 492.762 2144.46 550.394 2144.46 635.96V636.873C2144.46 637.481 2144.46 638.272 2144.46 639.246C2144.46 667.119 2148.48 692.8 2156.51 716.291C2172.82 764.247 2199.48 797.597 2236.48 816.341C2252.43 824.496 2272.33 828.573 2296.19 828.573C2319.92 828.573 2338.12 821.757 2350.78 808.125C2363.32 794.493 2369.59 775.445 2369.59 750.98C2369.59 726.637 2363.44 704.972 2351.14 685.984C2345.67 677.708 2342.93 672.778 2342.93 671.196C2342.93 663.528 2366.36 659.694 2413.22 659.694C2460.33 659.816 2483.88 665.841 2483.88 677.769C2483.88 680.812 2480.29 686.045 2473.11 693.47C2465.93 700.773 2461 709.11 2458.32 718.482C2455.52 727.854 2453.27 747.876 2451.57 778.548C2449.98 809.22 2446.27 828.269 2440.43 835.693C2434.59 843.24 2422.35 848.534 2403.73 851.577C2384.98 854.62 2365.2 858.941 2344.39 864.54C2323.7 870.26 2305.86 873.121 2290.89 873.121H2277.02C2249.02 873.121 2221.39 867.826 2194.12 857.237C2166.86 846.648 2142.69 830.277 2121.64 808.125C2080.74 765.647 2060.29 711.849 2060.29 646.731ZM2549.07 421.438C2549.07 415.108 2561.06 411.944 2585.04 411.944H2594.71L2604.57 412.309L2642.73 412.492C2677.55 412.492 2699.94 413.222 2709.92 414.682C2719.91 416.143 2724.9 420.829 2724.9 428.74C2724.9 431.54 2719.36 437.443 2708.28 446.45C2697.2 455.335 2689.78 465.62 2686.01 477.305C2679.68 497.753 2676.51 528.729 2676.51 570.234L2675.78 589.952V669.188C2675.78 742.217 2678.21 785.06 2683.08 797.719C2687.95 810.377 2694.65 818.471 2703.17 822.001C2711.69 825.652 2723.31 827.478 2738.04 827.478C2772.85 827.478 2801.7 821.209 2824.59 808.673C2834.93 802.952 2847.96 791.085 2863.66 773.071C2879.36 755.057 2889.95 746.051 2895.43 746.051C2900.91 746.051 2903.65 750.98 2903.65 760.839C2903.65 787.251 2899.69 813.785 2891.78 840.44C2889.22 849.447 2885.39 855.229 2880.28 857.785C2870.42 862.897 2831.59 865.453 2763.79 865.453L2713.39 866.183L2652.77 866.731H2613.15C2576.88 866.731 2558.74 861.558 2558.74 851.212C2558.74 846.83 2563.49 840.44 2572.99 832.042C2582.6 823.765 2589.24 814.211 2592.89 803.378C2596.42 792.667 2598.18 768.507 2598.18 730.897L2598.91 710.814C2599.4 697.304 2599.64 687.384 2599.64 681.055L2600.19 661.52V581.371C2600.19 521.122 2598.67 485.277 2595.63 473.836C2592.58 462.516 2584.06 452.84 2570.06 444.807C2556.07 436.774 2549.07 428.984 2549.07 421.438ZM2953.86 649.653V633.951C2953.86 604.618 2959.21 575.346 2969.92 546.134C2980.51 516.923 2995.73 491.424 3015.57 469.637C3055.98 424.724 3106.01 402.268 3165.66 402.268H3180.81C3205.03 402.268 3229.8 407.927 3255.12 419.247C3280.56 430.688 3303.02 447.18 3322.5 468.724C3341.97 490.389 3356.52 515.401 3366.13 543.761C3375.87 571.999 3380.74 599.932 3380.74 627.561V635.595C3380.74 704.85 3359.74 762.786 3317.75 809.403C3299 830.095 3276.61 846.222 3250.56 857.785C3224.51 869.469 3197.06 875.312 3168.21 875.312H3160.73C3132.97 875.312 3106.13 869.834 3080.21 858.88C3054.28 847.926 3031.82 831.616 3012.83 809.951C2993.96 788.286 2979.42 763.517 2969.19 735.644C2958.97 707.893 2953.86 679.229 2953.86 649.653ZM3035.65 625.918V644.723C3035.65 672.961 3039.49 699.373 3047.16 723.959C3061.89 771.428 3084.77 804.656 3115.81 823.644C3131.63 833.016 3148.8 837.702 3167.3 837.702H3172.59C3187.93 837.702 3203.51 833.32 3219.33 824.557C3251.47 806.543 3274.23 770.576 3287.62 716.657C3292.73 695.843 3295.29 671.866 3295.29 644.723V638.516C3295.29 609.304 3291.76 582.344 3284.7 557.636C3271.07 509.072 3249.64 475.357 3220.43 456.491C3202.78 445.294 3185.86 439.695 3169.67 439.695H3159.45C3143.14 439.695 3127.19 444.259 3111.61 453.388C3079.84 472.375 3057.93 504.508 3045.88 549.786C3039.06 574.859 3035.65 600.236 3035.65 625.918ZM3455.23 854.316C3455.23 848.96 3461.26 842.509 3473.31 834.963C3485.48 827.417 3493.46 816.828 3497.23 803.196C3500.88 789.442 3502.71 747.207 3502.71 676.491L3502.16 650.383L3501.43 616.059L3501.06 607.478C3500.82 601.514 3500.7 594.394 3500.7 586.118V556.358C3500.7 507.551 3498.99 478.339 3495.59 468.724C3492.06 458.987 3484.45 450.284 3472.76 442.616C3461.32 434.948 3455.6 428.254 3455.6 422.533C3455.6 414.743 3469.9 410.848 3498.51 410.848H3633.07C3706.47 410.848 3753.88 430.87 3775.31 470.915C3783.34 486.129 3787.36 502.865 3787.36 521.122C3787.36 558.245 3767.94 587.943 3729.11 610.217C3719.37 615.938 3714.5 619.407 3714.5 620.624C3714.5 621.719 3719.37 624.397 3729.11 628.657C3756.5 640.463 3777.13 654.825 3791.01 671.744C3804.88 688.784 3811.82 710.693 3811.82 737.47V746.416C3811.82 761.508 3807.68 777.149 3799.41 793.337C3791.25 809.525 3778.47 823.644 3761.06 835.693C3732.7 855.533 3692.35 865.453 3640.01 865.453H3613.9L3605.68 865.088H3530.46L3497.41 865.453H3481.89C3464.12 865.453 3455.23 861.74 3455.23 854.316ZM3574.28 680.325V689.636L3574.64 692.557V708.076L3575.01 717.022C3575.01 720.065 3575.01 723.168 3575.01 726.333C3575.01 773.802 3577.32 802.526 3581.95 812.507C3586.57 822.487 3600.33 827.478 3623.21 827.478L3629.79 828.208H3642.93C3671.05 828.208 3693.26 820.723 3709.57 805.752C3725.89 790.781 3734.04 771.428 3734.04 747.694V734.183C3734.04 707.406 3724.06 685.558 3704.1 668.64C3684.26 651.843 3657.17 643.445 3622.85 643.445H3603.31C3597.47 644.175 3592.84 644.541 3589.43 644.541C3579.33 644.541 3574.28 656.469 3574.28 680.325ZM3574.64 510.898V575.528C3574.64 589.647 3576.47 598.715 3580.12 602.732C3583.77 606.748 3592.42 608.756 3606.05 608.756H3616.82C3645.67 608.756 3669.1 602.001 3687.12 588.491C3705.13 574.981 3714.14 556.237 3714.14 532.259V517.105C3714.14 496.049 3706.17 479.009 3690.22 465.985C3674.28 453.083 3653.89 446.633 3629.06 446.633H3615C3610.98 446.998 3605.81 447.18 3599.48 447.18C3593.02 447.18 3587.55 449.432 3583.04 453.935C3578.54 458.439 3576.17 464.159 3575.92 471.097C3575.8 478.035 3575.74 482.295 3575.74 483.877L3575.38 486.433C3575.38 488.259 3575.38 490.024 3575.38 491.728L3575.01 494.284V499.944L3574.64 510.898ZM3864.59 840.988C3864.59 837.093 3869.15 831.738 3878.28 824.922C3887.41 818.106 3892.89 813.663 3894.72 811.594C3904.82 800.64 3913.58 786.277 3921.01 768.507C3928.55 750.615 3943.1 712.275 3964.65 653.487C3986.31 594.698 4002.01 549.36 4011.75 517.47C4021.37 485.825 4029.28 463.368 4035.49 450.101C4047.17 424.663 4061.96 411.944 4079.86 411.944C4097.75 411.944 4114.06 426.793 4128.79 456.491C4139.62 478.035 4157.33 525.808 4181.92 599.81C4206.51 673.813 4229.27 734.183 4250.21 780.922C4257.75 797.962 4266.03 810.073 4275.04 817.254C4291.96 830.886 4300.42 838.919 4300.42 841.353C4300.42 849.508 4295.55 854.985 4285.81 857.785C4276.2 860.462 4258.49 861.801 4232.68 861.801L4213.69 862.532H4204.01L4194.88 862.166C4163.85 862.166 4148.33 858.211 4148.33 850.299C4148.33 850.056 4150.7 845.37 4155.45 836.241C4160.19 827.113 4162.57 817.193 4162.57 806.482C4162.57 795.649 4159.58 780.009 4153.62 759.561C4147.66 739.113 4141.08 725.907 4133.9 719.943C4126.84 713.979 4103.59 710.997 4064.15 710.997C4024.84 710.997 4001.1 714.648 3992.95 721.951C3988.56 725.968 3983.57 735.887 3977.97 751.71C3972.38 767.533 3969.58 782.808 3969.58 797.536C3969.58 812.263 3971.95 823.583 3976.7 831.494C3977.18 832.103 3979.56 835.146 3983.82 840.623C3988.08 845.978 3990.21 850.056 3990.21 852.855C3990.21 858.576 3975.11 861.436 3944.93 861.436C3914.74 861.436 3893.8 859.976 3882.12 857.054C3870.43 854.133 3864.59 848.778 3864.59 840.988ZM4007.37 671.196V673.204C4007.37 676.247 4010.47 677.769 4016.68 677.769L4021.25 678.499L4076.75 679.047H4105.78C4118.93 679.047 4125.5 676.978 4125.5 672.839C4125.5 661.398 4109.01 609.487 4076.02 517.105C4071.03 502.865 4068.23 495.744 4067.62 495.744C4067.14 495.744 4056.97 523.374 4037.13 578.632C4017.29 633.891 4007.37 664.745 4007.37 671.196ZM4346.61 421.438C4346.61 415.108 4358.6 411.944 4382.58 411.944H4392.08L4401.94 412.309L4440.28 412.492C4474.97 412.492 4497.31 413.222 4507.29 414.682C4517.39 416.143 4522.44 420.829 4522.44 428.74C4522.44 431.54 4516.84 437.443 4505.64 446.45C4494.57 455.335 4487.14 465.62 4483.37 477.305C4477.04 497.753 4473.87 528.729 4473.87 570.234L4473.14 589.952V669.188C4473.14 742.217 4475.58 785.06 4480.45 797.719C4485.32 810.377 4492.01 818.471 4500.53 822.001C4509.17 825.652 4520.86 827.478 4535.59 827.478C4570.28 827.478 4599.07 821.209 4621.95 808.673C4632.3 802.952 4645.32 791.085 4661.02 773.071C4676.73 755.057 4687.38 746.051 4692.98 746.051C4698.45 746.051 4701.19 750.98 4701.19 760.839C4701.19 787.251 4697.24 813.785 4689.32 840.44C4686.65 849.447 4682.81 855.229 4677.82 857.785C4667.84 862.897 4629.01 865.453 4561.33 865.453L4510.76 866.183L4450.14 866.731H4410.52C4374.24 866.731 4356.11 861.558 4356.11 851.212C4356.11 846.83 4360.92 840.44 4370.53 832.042C4380.03 823.765 4386.6 814.211 4390.25 803.378C4393.9 792.667 4395.73 768.507 4395.73 730.897L4396.28 710.814C4396.76 697.304 4397.01 687.384 4397.01 681.055L4397.74 661.52V581.371C4397.74 521.122 4396.15 485.277 4392.99 473.836C4389.95 462.516 4381.43 452.84 4367.43 444.807C4353.55 436.774 4346.61 428.984 4346.61 421.438ZM4925.41 501.587C4925.41 453.023 4930.94 425.028 4942.02 417.604C4947.5 413.83 4972.63 411.944 5017.43 411.944H5049.75L5060.7 412.309H5125.7C5227.71 412.309 5282.24 413.952 5289.3 417.238C5299.64 421.985 5304.82 444.868 5304.82 485.886V496.292C5304.82 513.941 5301.41 522.765 5294.59 522.765C5289.97 522.765 5282.36 515.584 5271.77 501.222C5261.3 486.738 5249.92 475.54 5237.63 467.628C5225.45 459.717 5207.13 455.761 5182.67 455.761C5171.96 455.761 5164.35 462.334 5159.84 475.479C5155.34 488.502 5153.09 515.706 5153.09 557.089L5152.36 579.18V601.819L5151.99 624.275V657.686C5151.99 728.645 5154.12 773.254 5158.38 791.511C5162.52 809.768 5168.55 822.183 5176.46 828.756C5194.23 843.727 5203.12 852.247 5203.12 854.316C5203.12 862.836 5192.04 867.096 5169.89 867.096H5159.3L5148.52 866.731L5072.93 867.096C5040.56 867.096 5024.37 863.384 5024.37 855.959C5024.37 849.995 5030.39 843.057 5042.44 835.146C5054.37 827.234 5062.1 819.079 5065.63 810.681C5072.2 794.615 5075.49 763.395 5075.49 717.022L5076.22 694.2V616.059C5076.22 540.84 5074.7 497.327 5071.66 485.52C5066.79 467.263 5055.77 458.135 5038.61 458.135C5006.96 458.135 4979.57 472.436 4956.45 501.039C4943.91 516.375 4936.54 524.043 4934.35 524.043C4928.39 524.043 4925.41 516.558 4925.41 501.587ZM5367.44 847.013C5367.44 842.388 5373.53 836.728 5385.7 830.034C5397.75 823.339 5405.48 814.819 5408.89 804.474C5412.3 794.128 5414 761.326 5414 706.067L5415.65 602.549C5415.65 529.764 5413.33 486.494 5408.71 472.74C5404.08 458.987 5396.72 448.154 5386.61 440.243C5376.51 432.331 5371.46 426.185 5371.46 421.803C5371.46 415.23 5411.14 411.944 5490.51 411.944L5524.1 411.579C5584.84 411.579 5628.84 420.16 5656.11 437.321C5670.84 446.572 5682.89 459.291 5692.26 475.479C5701.63 491.545 5706.32 510.715 5706.32 532.989C5706.32 569.869 5690.68 601.088 5659.4 626.649C5641.87 641.133 5633.1 650.626 5633.1 655.13C5633.1 659.633 5644.61 682.211 5667.61 722.864C5690.74 763.395 5706.32 788.59 5714.35 798.449C5722.39 808.429 5734.32 817.619 5750.14 826.017C5765.96 834.537 5773.88 841.718 5773.88 847.561C5773.88 858.88 5753.31 864.54 5712.16 864.54C5689.28 864.54 5671.45 858.028 5658.67 845.005C5646.01 831.981 5630.06 805.569 5610.83 765.768C5591.6 725.968 5577.78 700.712 5569.38 690.001C5555.75 672.352 5538.34 663.528 5517.16 663.528C5506.45 663.528 5499.7 667.301 5496.9 674.848C5494.22 682.272 5492.88 701.929 5492.88 733.818C5492.88 765.708 5496.29 791.085 5503.1 809.951C5505.66 817.254 5511.2 825.835 5519.72 835.693C5528.24 845.674 5532.5 851.516 5532.5 853.22C5532.5 861.375 5519.29 865.453 5492.88 865.453H5424.59C5403.05 865.453 5388.14 864.357 5379.86 862.166C5371.58 859.976 5367.44 854.924 5367.44 847.013ZM5489.23 571.512V594.333C5489.23 609.548 5490.93 618.859 5494.34 622.267C5497.75 625.675 5504.75 627.379 5515.34 627.379H5533.05C5563.6 627.379 5587.28 618.92 5604.07 602.001C5620.99 585.205 5629.45 565.243 5629.45 542.118V526.417C5629.45 502.804 5621.48 483.756 5605.53 469.271C5589.59 454.787 5569.26 447.545 5544.55 447.545H5529.4C5509.8 447.545 5498.3 452.171 5494.89 461.421C5491.36 470.671 5489.59 499.578 5489.59 548.143V562.931L5489.23 571.512ZM5804.55 840.988C5804.55 837.093 5809.12 831.738 5818.24 824.922C5827.37 818.106 5832.79 813.663 5834.49 811.594C5844.72 800.64 5853.54 786.277 5860.97 768.507C5868.39 750.615 5882.94 712.275 5904.61 653.487C5926.27 594.698 5941.98 549.36 5951.71 517.47C5961.33 485.825 5969.24 463.368 5975.45 450.101C5987.14 424.663 6001.93 411.944 6019.82 411.944C6037.71 411.944 6054.02 426.793 6068.75 456.491C6079.58 478.035 6097.29 525.808 6121.88 599.81C6146.47 673.813 6169.23 734.183 6190.17 780.922C6197.59 797.962 6205.81 810.073 6214.82 817.254C6231.86 830.886 6240.38 838.919 6240.38 841.353C6240.38 849.508 6235.51 854.985 6225.77 857.785C6216.16 860.462 6198.45 861.801 6172.64 861.801L6153.47 862.532H6143.98L6134.66 862.166C6103.75 862.166 6088.29 858.211 6088.29 850.299C6088.29 850.056 6090.66 845.37 6095.41 836.241C6100.03 827.113 6102.35 817.193 6102.35 806.482C6102.35 795.649 6099.43 780.009 6093.58 759.561C6087.62 739.113 6081.05 725.907 6073.86 719.943C6066.68 713.979 6043.43 710.997 6004.12 710.997C5964.8 710.997 5941.06 714.648 5932.91 721.951C5928.53 725.968 5923.54 735.887 5917.94 751.71C5912.34 767.533 5909.54 782.808 5909.54 797.536C5909.54 812.263 5911.91 823.583 5916.66 831.494C5917.15 832.103 5919.52 835.146 5923.78 840.623C5928.04 845.978 5930.17 850.056 5930.17 852.855C5930.17 858.576 5915.08 861.436 5884.89 861.436C5854.7 861.436 5833.76 859.976 5822.08 857.054C5810.39 854.133 5804.55 848.778 5804.55 840.988ZM5947.33 671.196V673.204C5947.33 676.247 5950.44 677.769 5956.64 677.769L5961.21 678.499L6016.71 679.047H6045.75C6058.89 679.047 6065.46 676.978 6065.46 672.839C6065.46 661.398 6048.97 609.487 6015.98 517.105C6010.99 502.865 6008.19 495.744 6007.59 495.744C6006.98 495.744 5996.81 523.374 5977.09 578.632C5957.25 633.891 5947.33 664.745 5947.33 671.196ZM6293.33 852.307C6293.33 846.344 6299.84 839.953 6312.87 833.137C6325.89 826.321 6334.17 815.306 6337.7 800.092C6341.11 784.999 6342.81 731.688 6342.81 640.159C6342.81 548.629 6341.11 495.258 6337.7 480.043C6334.29 464.707 6328.45 454.301 6320.17 448.823C6303.01 437.626 6294.43 430.505 6294.43 427.462C6294.43 420.89 6300.21 416.508 6311.77 414.317C6323.33 412.248 6359.12 411.214 6419.13 411.214L6452.73 410.848H6469.89C6512.98 411.092 6548.58 416.265 6576.7 426.367C6632.33 446.693 6671.4 483.999 6693.92 538.284C6705.73 567.739 6711.63 599.08 6711.63 632.308V641.437C6711.63 673.57 6705.73 704.363 6693.92 733.818C6670.31 792.12 6628.74 831.799 6569.22 852.855C6542.56 862.349 6509.75 867.096 6470.8 867.096H6462.22L6454 866.731H6428.99L6412.74 866.366H6396.31C6327.66 866.366 6293.33 861.68 6293.33 852.307ZM6416.76 486.798V539.562L6417.12 544.856C6417.12 550.09 6417.12 555.385 6417.12 560.74L6417.49 571.512V635.96C6417.49 741.73 6418.46 798.57 6420.41 806.482C6424.43 822.305 6442.01 830.216 6473.18 830.216H6483.77C6525.52 830.216 6559.3 814.576 6585.1 783.295C6597.76 767.959 6607.98 748.302 6615.77 724.325C6623.44 700.347 6627.28 674.3 6627.28 646.184V633.586C6627.28 579.423 6613.77 534.876 6586.74 499.944C6559.6 465.011 6523.51 447.545 6478.47 447.545H6467.88C6445.24 447.545 6431.06 450.223 6425.34 455.579C6419.62 460.934 6416.76 471.341 6416.76 486.798ZM6786.31 846.283C6786.31 842.388 6792.52 836.241 6804.93 827.843C6817.35 819.445 6825.14 806.969 6828.3 790.416C6831.47 773.862 6833.05 721.038 6833.05 631.943C6833.05 542.848 6831.35 492.458 6827.94 480.774C6824.53 469.211 6817.17 458.987 6805.84 450.101C6794.52 441.338 6788.86 436.104 6788.86 434.4C6788.86 426.245 6794.89 420.951 6806.94 418.516C6819.11 416.082 6855.08 414.865 6914.85 414.865L6929.09 414.5C6938.58 414.256 6948.14 414.074 6957.76 413.952L7001.21 412.857H7015.82C7057.2 412.857 7083.07 415.595 7093.42 421.072C7108.14 428.984 7115.51 449.797 7115.51 483.512C7115.51 496.292 7113.38 502.682 7109.12 502.682C7107.17 502.682 7100.23 497.814 7088.3 488.076C7061.52 466.168 7023.18 455.213 6973.27 455.213C6949.3 455.213 6933.59 462.638 6926.17 477.487C6916.19 497.327 6911.2 528.364 6911.2 570.599C6911.2 582.892 6915.33 591.29 6923.61 595.794C6931.89 600.297 6943.03 602.549 6957.03 602.549C6971.15 602.549 6981.73 600.784 6988.79 597.254C6995.85 593.36 7003.46 586.787 7011.62 577.537C7019.65 568.286 7026.35 563.661 7031.7 563.661C7044.85 563.661 7051.42 582.101 7051.42 618.98C7051.42 620.319 7051.54 621.658 7051.79 622.997C7051.79 657.807 7050.33 679.168 7047.4 687.08C7044.6 695.356 7040.1 699.373 7033.89 699.13C7033.28 699.13 7023 690.61 7003.04 673.57C6991.11 663.345 6975.83 658.233 6957.21 658.233C6938.71 658.233 6925.8 661.52 6918.5 668.092C6911.2 674.543 6907.54 685.011 6907.54 699.495C6907.54 769.237 6919.66 809.038 6943.88 818.897C6953.13 822.67 6969.62 824.557 6993.36 824.557C7036.08 824.557 7071.26 812.994 7098.89 789.868C7115.81 775.871 7126.04 768.872 7129.57 768.872C7133.1 768.872 7134.86 772.158 7134.86 778.731C7134.86 813.055 7126.28 837.58 7109.12 852.307C7098.16 861.68 7064.32 866.366 7007.6 866.366H6949.17C6888.43 866.366 6846.07 865.148 6822.1 862.714C6798.24 860.158 6786.31 854.681 6786.31 846.283ZM7382.63 854.316C7382.63 848.717 7390.85 840.136 7407.28 828.573C7417.62 821.27 7424.44 808.369 7427.73 789.868C7430.89 771.367 7432.48 717.448 7432.48 628.109C7432.48 538.771 7430.95 488.442 7427.91 477.122C7424.99 465.803 7418.29 455.274 7407.83 445.537C7397.36 435.922 7392.12 429.349 7392.12 425.819C7392.12 417.421 7431.38 413.222 7509.89 413.222L7569.96 412.309C7622.55 412.309 7661.68 422.533 7687.36 442.981C7701.73 454.179 7712.8 467.872 7720.59 484.06C7728.38 500.37 7732.28 517.227 7732.28 534.632V543.578C7732.28 563.053 7727.23 582.04 7717.12 600.541C7694.73 641.437 7654.68 665.841 7596.98 673.752C7546.83 680.446 7521.03 684.767 7519.57 686.715C7512.51 695.478 7508.98 715.379 7508.98 746.416C7508.98 777.453 7511.47 797.597 7516.46 806.847C7521.58 816.219 7530.04 824.922 7541.84 832.955C7553.53 840.988 7559.37 847.865 7559.37 853.586C7559.37 861.74 7529.25 865.818 7468.99 865.818L7435.03 866.183C7400.1 866.183 7382.63 862.227 7382.63 854.316ZM7509.71 568.591V604.557C7509.71 620.867 7511.6 631.152 7515.37 635.412C7519.26 639.672 7529.98 641.802 7547.5 641.802H7556.45C7585.3 641.802 7608.12 633.404 7624.92 616.607C7641.72 599.81 7650.12 577.963 7650.12 551.064V537.006C7650.12 509.011 7641.6 487.224 7624.55 471.645C7607.51 456.065 7583.84 448.276 7553.53 448.276C7536.12 448.276 7524.68 450.223 7519.2 454.118C7513.73 458.135 7510.99 466.837 7510.99 480.226L7510.26 489.172V497.935L7509.89 507.246V559.279L7509.71 568.591ZM7791.62 421.438C7791.62 415.108 7803.61 411.944 7827.59 411.944H7837.27L7847.13 412.309L7885.29 412.492C7920.1 412.492 7942.5 413.222 7952.48 414.682C7962.46 416.143 7967.45 420.829 7967.45 428.74C7967.45 431.54 7961.91 437.443 7950.83 446.45C7939.76 455.335 7932.33 465.62 7928.56 477.305C7922.23 497.753 7919.06 528.729 7919.06 570.234L7918.33 589.952V669.188C7918.33 742.217 7920.77 785.06 7925.64 797.719C7930.38 810.377 7937.08 818.471 7945.72 822.001C7954.24 825.652 7965.87 827.478 7980.59 827.478C8015.41 827.478 8044.26 821.209 8067.14 808.673C8077.49 802.952 8090.51 791.085 8106.21 773.071C8121.92 755.057 8132.51 746.051 8137.98 746.051C8143.46 746.051 8146.2 750.98 8146.2 760.839C8146.2 787.251 8142.24 813.785 8134.33 840.44C8131.77 849.447 8127.94 855.229 8122.83 857.785C8112.97 862.897 8074.14 865.453 8006.34 865.453L7955.95 866.183L7895.14 866.731H7855.71C7819.43 866.731 7801.3 861.558 7801.3 851.212C7801.3 846.83 7806.04 840.44 7815.54 832.042C7825.15 823.765 7831.79 814.211 7835.44 803.378C7838.97 792.667 7840.73 768.507 7840.73 730.897L7841.46 710.814C7841.95 697.304 7842.2 687.384 7842.2 681.055L7842.74 661.52V581.371C7842.74 521.122 7841.22 485.277 7838.18 473.836C7835.14 462.516 7826.61 452.84 7812.62 444.807C7798.62 436.774 7791.62 428.984 7791.62 421.438ZM8179.61 840.988C8179.61 837.093 8184.18 831.738 8193.31 824.922C8202.44 818.106 8207.85 813.663 8209.56 811.594C8219.66 800.64 8228.48 786.277 8236.03 768.507C8243.46 750.615 8258 712.275 8279.67 653.487C8301.33 594.698 8317.04 549.36 8326.78 517.47C8336.39 485.825 8344.3 463.368 8350.51 450.101C8362.07 424.663 8376.86 411.944 8394.88 411.944C8412.77 411.944 8429.08 426.793 8443.81 456.491C8454.52 478.035 8472.23 525.808 8496.94 599.81C8521.53 673.813 8544.29 734.183 8565.23 780.922C8572.66 797.962 8580.87 810.073 8589.88 817.254C8606.8 830.886 8615.26 838.919 8615.26 841.353C8615.26 849.508 8610.45 854.985 8600.83 857.785C8591.1 860.462 8573.39 861.801 8547.7 861.801L8528.53 862.532H8519.04L8509.72 862.166C8478.81 862.166 8463.35 858.211 8463.35 850.299C8463.35 850.056 8465.66 845.37 8470.29 836.241C8475.03 827.113 8477.41 817.193 8477.41 806.482C8477.41 795.649 8474.43 780.009 8468.46 759.561C8462.62 739.113 8456.11 725.907 8448.92 719.943C8441.74 713.979 8418.49 710.997 8379.18 710.997C8339.74 710.997 8316 714.648 8307.97 721.951C8303.47 725.968 8298.41 735.887 8292.81 751.71C8287.21 767.533 8284.42 782.808 8284.42 797.536C8284.42 812.263 8286.85 823.583 8291.72 831.494C8292.21 832.103 8294.58 835.146 8298.84 840.623C8303.1 845.978 8305.23 850.056 8305.23 852.855C8305.23 858.576 8290.14 861.436 8259.95 861.436C8229.64 861.436 8208.7 859.976 8197.14 857.054C8185.45 854.133 8179.61 848.778 8179.61 840.988ZM8322.39 671.196V673.204C8322.39 676.247 8325.5 677.769 8331.7 677.769L8336.27 678.499L8391.59 679.047H8420.62C8433.89 679.047 8440.53 676.978 8440.53 672.839C8440.53 661.398 8424.03 609.487 8391.04 517.105C8385.93 502.865 8383.13 495.744 8382.65 495.744C8382.04 495.744 8371.87 523.374 8352.15 578.632C8332.31 633.891 8322.39 664.745 8322.39 671.196ZM8661.27 847.013C8661.27 832.529 8701.68 766.803 8782.51 649.835C8863.45 532.989 8903.92 469.393 8903.92 459.047C8903.92 453.57 8890.96 450.832 8865.03 450.832C8816.83 450.832 8782.38 454.483 8761.69 461.786C8740.88 468.967 8723.04 480.713 8708.19 497.022C8693.34 513.332 8684.28 521.487 8680.99 521.487C8674.78 521.487 8671.68 515.401 8671.68 503.23C8671.68 457.465 8678.62 429.897 8692.49 420.525C8699.8 415.413 8743.92 412.857 8824.87 412.857H8930.04C8962.17 412.857 8982.44 414.013 8990.84 416.326C8999.36 418.638 9003.62 425.089 9003.62 435.678C9003.62 449.797 8963.39 514.914 8882.93 631.03C8802.35 747.268 8762.06 808.673 8762.06 815.245C8762.06 823.887 8784.45 828.208 8829.25 828.208C8874.04 828.208 8910.62 822.122 8938.98 809.951C8953.95 803.622 8968.5 792.12 8982.62 775.445C8996.86 758.648 9006.05 750.25 9010.19 750.25C9016.52 750.25 9019.68 755.91 9019.68 767.229C9019.68 788.894 9015.85 811.533 9008.18 835.146C9004.41 846.83 8998.14 854.924 8989.38 859.428C8980.61 864.053 8919.51 866.366 8806.06 866.366H8779.22L8766.07 866.183L8727.18 866.366C8703.45 866.366 8687.26 865.514 8678.62 863.81C8667.05 861.375 8661.27 855.776 8661.27 847.013ZM9062.04 840.988C9062.04 837.093 9066.61 831.738 9075.74 824.922C9084.87 818.106 9090.28 813.663 9091.99 811.594C9102.09 800.64 9110.92 786.277 9118.46 768.507C9125.89 750.615 9140.43 712.275 9162.1 653.487C9183.77 594.698 9199.41 549.36 9209.02 517.47C9218.76 485.825 9226.67 463.368 9232.76 450.101C9244.45 424.663 9259.23 411.944 9277.13 411.944C9295.14 411.944 9311.51 426.793 9326.24 456.491C9336.96 478.035 9354.67 525.808 9379.38 599.81C9403.96 673.813 9426.73 734.183 9447.66 780.922C9455.09 797.962 9463.3 810.073 9472.31 817.254C9489.23 830.886 9497.69 838.919 9497.69 841.353C9497.69 849.508 9492.88 854.985 9483.27 857.785C9473.53 860.462 9455.82 861.801 9430.13 861.801L9410.96 862.532H9401.47L9392.16 862.166C9361.12 862.166 9345.6 858.211 9345.6 850.299C9345.6 850.056 9347.97 845.37 9352.72 836.241C9357.47 827.113 9359.84 817.193 9359.84 806.482C9359.84 795.649 9356.86 780.009 9350.89 759.561C9344.93 739.113 9338.42 725.907 9331.36 719.943C9324.17 713.979 9300.92 710.997 9261.61 710.997C9222.17 710.997 9198.37 714.648 9190.22 721.951C9185.84 725.968 9180.85 735.887 9175.25 751.71C9169.65 767.533 9166.85 782.808 9166.85 797.536C9166.85 812.263 9169.28 823.583 9174.15 831.494C9174.52 832.103 9176.89 835.146 9181.27 840.623C9185.53 845.978 9187.66 850.056 9187.66 852.855C9187.66 858.576 9172.51 861.436 9142.2 861.436C9112.01 861.436 9091.07 859.976 9079.39 857.054C9067.83 854.133 9062.04 848.778 9062.04 840.988ZM9204.82 671.196V673.204C9204.82 676.247 9207.87 677.769 9213.95 677.769L9218.7 678.499L9274.02 679.047H9303.06C9316.32 679.047 9322.96 676.978 9322.96 672.839C9322.96 661.398 9306.46 609.487 9273.48 517.105C9268.36 502.865 9265.56 495.744 9265.08 495.744C9264.47 495.744 9254.24 523.374 9234.4 578.632C9214.68 633.891 9204.82 664.745 9204.82 671.196Z" fill="#32546C"/>
<path d="M2297.21 1571.21L2293.15 1550.03L2336.74 1533.38L2366.64 1256L2322.55 1239.35L2326.1 1218.17H2417.83L2507.03 1479.42V1516.24L2619.54 1218.17H2713.81L2717.86 1239.35L2673.77 1256L2697.59 1533.38L2740.67 1550.03L2737.12 1571.21H2603.83L2600.28 1550.03L2643.36 1533.38L2621.06 1275.67L2509.06 1571.21L2484.22 1579.78L2384.89 1287.27L2358.53 1533.38L2401.61 1550.03L2398.06 1571.21H2297.21ZM2770.32 1453.19C2770.32 1415.2 2780.87 1385.19 2801.99 1363.17C2822.94 1341.15 2852.08 1330.13 2889.42 1330.13C2926.92 1330.13 2956.15 1340.98 2977.09 1362.66C2998.04 1384.35 3008.52 1414.53 3008.52 1453.19C3008.52 1492.87 2998.55 1523.38 2978.62 1544.73C2958.85 1566.08 2929.12 1576.76 2889.42 1576.76C2850.22 1576.76 2820.57 1565.91 2800.47 1544.23C2780.37 1522.37 2770.32 1492.03 2770.32 1453.19ZM2819.73 1451.68C2819.73 1483.79 2825.98 1509.6 2838.48 1529.1C2850.98 1548.43 2867.96 1558.1 2889.42 1558.1C2910.87 1558.1 2928.02 1548.43 2940.86 1529.1C2953.53 1509.76 2959.86 1483.96 2959.86 1451.68C2959.86 1419.74 2953.53 1394.61 2940.86 1376.28C2928.02 1357.96 2910.87 1348.79 2889.42 1348.79C2868.3 1348.79 2851.41 1358.13 2838.74 1376.79C2826.07 1395.28 2819.73 1420.24 2819.73 1451.68ZM3049.06 1558.1V1504.64L3067.81 1501.11L3084.54 1550.03C3099.74 1555.41 3112.41 1558.1 3122.55 1558.1C3139.11 1558.1 3152.54 1554.57 3162.84 1547.51C3173.15 1540.44 3178.3 1531.03 3178.3 1519.26C3178.3 1516.24 3177.71 1513.29 3176.52 1510.44C3175.34 1507.58 3173.99 1505.06 3172.47 1502.87C3170.95 1500.85 3168.58 1498.58 3165.38 1496.06C3162 1493.54 3159.21 1491.52 3157.01 1490.01C3154.82 1488.5 3151.44 1486.56 3146.88 1484.21C3142.15 1482.02 3138.68 1480.43 3136.49 1479.42C3134.29 1478.41 3130.49 1476.73 3125.08 1474.38C3119.85 1472.19 3116.3 1470.68 3114.44 1469.84C3104.3 1465.13 3096.03 1460.93 3089.61 1457.23C3083.19 1453.36 3076.68 1448.57 3070.09 1442.85C3063.34 1437.14 3058.27 1430.5 3054.89 1422.93C3051.68 1415.2 3050.08 1406.63 3050.08 1397.21C3050.08 1376.7 3058.35 1360.39 3074.91 1348.29C3091.47 1336.19 3113.6 1330.13 3141.3 1330.13C3162.25 1330.13 3184.72 1336.19 3208.71 1348.29V1390.15L3190.46 1393.68L3180.33 1357.37C3169.01 1351.65 3154.14 1348.79 3135.73 1348.79C3122.04 1348.79 3110.98 1352.07 3102.53 1358.63C3094.25 1365.19 3090.11 1373.68 3090.11 1384.1C3090.11 1388.3 3091.38 1392.5 3093.91 1396.71C3096.28 1400.74 3098.98 1404.1 3102.02 1406.79C3105.06 1409.48 3109.46 1412.51 3115.2 1415.87C3121.11 1419.07 3125.76 1421.5 3129.14 1423.19C3132.69 1424.7 3137.75 1426.8 3144.34 1429.49C3150.76 1432.18 3156 1434.45 3160.05 1436.3C3163.94 1438.15 3168.84 1440.58 3174.75 1443.61C3180.49 1446.64 3185.23 1449.49 3188.94 1452.18C3192.49 1454.87 3196.37 1458.15 3200.6 1462.02C3204.82 1466.05 3208.12 1470.17 3210.48 1474.38C3212.85 1478.58 3214.87 1483.37 3216.56 1488.75C3218.08 1494.13 3218.84 1499.93 3218.84 1506.15C3218.84 1527.84 3210.73 1545.07 3194.52 1557.84C3178.3 1570.45 3155.66 1576.76 3126.6 1576.76C3100.42 1576.76 3074.57 1570.54 3049.06 1558.1ZM3247.48 1353.84L3243.93 1335.68L3279.91 1324.59L3301.2 1271.63L3324.51 1277.18V1335.68H3390.91L3387.36 1353.84H3324.51V1515.73C3324.51 1527.33 3327.22 1536.41 3332.62 1542.97C3337.86 1549.69 3344.45 1553.05 3352.39 1553.05C3367.42 1553.05 3380.77 1546.66 3392.43 1533.89L3404.08 1547.51C3394.62 1557.76 3385.5 1565.24 3376.72 1569.95C3368.1 1574.49 3357.12 1576.76 3343.77 1576.76C3321.47 1576.76 3304.75 1570.79 3293.6 1558.85C3282.45 1546.92 3276.87 1531.2 3276.87 1511.7V1353.84H3247.48ZM3572.09 1311.47L3550.8 1307.94V1218.17H3840.7V1307.94L3819.41 1311.47L3791.79 1239.35H3722.61V1533.38L3766.71 1550.03L3763.16 1571.21H3628.35L3624.8 1550.03L3668.89 1533.38V1239.35H3600.22L3572.09 1311.47ZM3884.79 1571.21L3881.25 1553.05L3914.19 1542.46V1353.84H3888.85L3885.3 1335.68L3944.09 1330.13L3962.08 1348.79C3984.38 1336.35 4005.33 1330.13 4024.93 1330.13C4041.14 1330.13 4056.1 1332.99 4069.78 1338.71V1390.15L4051.53 1393.68L4040.38 1357.87C4032.28 1355.18 4024 1353.84 4015.55 1353.84C4004.4 1353.84 3986.58 1358.38 3962.08 1367.46V1542.46L3995.28 1553.05L3991.22 1571.21H3884.79ZM4093.6 1353.84L4089.8 1335.68L4142 1330.13L4163.79 1335.68V1491.02C4163.79 1501.95 4165.31 1511.53 4168.35 1519.77C4171.56 1528.17 4175.7 1534.73 4180.77 1539.44C4186.01 1543.97 4191.75 1547.42 4198 1549.77C4204.08 1551.96 4210.67 1553.05 4217.77 1553.05C4239.39 1553.05 4256.29 1544.48 4268.45 1527.33V1353.84H4245.14L4241.59 1335.68L4297.84 1330.13L4316.09 1335.68V1542.46L4349.03 1553.05L4345.48 1571.21H4277.57L4268.45 1553.05C4257.47 1562.3 4246.91 1568.6 4236.77 1571.97C4226.64 1575.16 4214.05 1576.76 4199.02 1576.76C4172.15 1576.76 4151.63 1568.69 4137.44 1552.55C4123.42 1536.24 4116.41 1514.22 4116.41 1486.48V1353.84H4093.6ZM4376.65 1558.1V1504.64L4395.41 1501.11L4412.13 1550.03C4427.5 1555.41 4440.17 1558.1 4450.14 1558.1C4466.7 1558.1 4480.13 1554.57 4490.43 1547.51C4500.74 1540.44 4505.89 1531.03 4505.89 1519.26C4505.89 1516.24 4505.3 1513.29 4504.12 1510.44C4502.93 1507.58 4501.58 1505.06 4500.06 1502.87C4498.54 1500.85 4496.18 1498.58 4492.97 1496.06C4489.76 1493.54 4487.05 1491.52 4484.86 1490.01C4482.49 1488.5 4479.03 1486.56 4474.47 1484.21C4469.91 1482.02 4466.44 1480.43 4464.08 1479.42C4461.88 1478.41 4458.17 1476.73 4452.93 1474.38C4447.52 1472.19 4443.89 1470.68 4442.03 1469.84C4432.06 1465.13 4423.79 1460.93 4417.2 1457.23C4410.78 1453.36 4404.27 1448.57 4397.69 1442.85C4390.93 1437.14 4385.94 1430.5 4382.73 1422.93C4379.36 1415.2 4377.67 1406.63 4377.67 1397.21C4377.67 1376.7 4385.94 1360.39 4402.5 1348.29C4419.06 1336.19 4441.27 1330.13 4469.15 1330.13C4490.09 1330.13 4512.48 1336.19 4536.3 1348.29V1390.15L4518.05 1393.68L4507.92 1357.37C4496.6 1351.65 4481.73 1348.79 4463.32 1348.79C4449.63 1348.79 4438.65 1352.07 4430.38 1358.63C4421.93 1365.19 4417.7 1373.68 4417.7 1384.1C4417.7 1388.3 4418.97 1392.5 4421.51 1396.71C4424.04 1400.74 4426.74 1404.1 4429.61 1406.79C4432.66 1409.48 4437.13 1412.51 4443.05 1415.87C4448.79 1419.07 4453.43 1421.5 4456.98 1423.19C4460.36 1424.7 4465.34 1426.8 4471.93 1429.49C4478.35 1432.18 4483.59 1434.45 4487.64 1436.3C4491.53 1438.15 4496.43 1440.58 4502.34 1443.61C4508.25 1446.64 4512.99 1449.49 4516.53 1452.18C4520.25 1454.87 4524.14 1458.15 4528.19 1462.02C4532.41 1466.05 4535.71 1470.17 4538.07 1474.38C4540.61 1478.58 4542.63 1483.37 4544.15 1488.75C4545.67 1494.13 4546.43 1499.93 4546.43 1506.15C4546.43 1527.84 4538.33 1545.07 4522.11 1557.84C4505.89 1570.45 4483.25 1576.76 4454.2 1576.76C4428.18 1576.76 4402.33 1570.54 4376.65 1558.1ZM4575.07 1353.84L4571.52 1335.68L4607.51 1324.59L4628.79 1271.63L4652.1 1277.18V1335.68H4718.5L4714.95 1353.84H4652.1V1515.73C4652.1 1527.33 4654.81 1536.41 4660.21 1542.97C4665.62 1549.69 4672.29 1553.05 4680.23 1553.05C4695.1 1553.05 4708.45 1546.66 4720.27 1533.89L4731.93 1547.51C4722.3 1557.76 4713.18 1565.24 4704.56 1569.95C4695.77 1574.49 4684.71 1576.76 4671.36 1576.76C4649.23 1576.76 4632.59 1570.79 4621.44 1558.85C4610.29 1546.92 4604.72 1531.2 4604.72 1511.7V1353.84H4575.07ZM4751.95 1453.19C4751.95 1415.2 4763.35 1385.19 4786.16 1363.17C4808.79 1341.15 4838.27 1330.13 4874.59 1330.13C4904.5 1330.13 4928.91 1337.36 4947.83 1351.82C4966.75 1366.28 4976.21 1385.44 4976.21 1409.32C4976.21 1421.59 4973.34 1434.03 4967.59 1446.64H4805.67V1449.16C4805.67 1480.6 4812.59 1505.73 4826.45 1524.56C4840.3 1543.55 4860.4 1553.05 4886.76 1553.05C4911.09 1553.05 4935.24 1545.49 4959.23 1530.36L4970.89 1547C4960.25 1556.75 4947.24 1564.15 4931.86 1569.19C4916.49 1574.24 4900.36 1576.76 4883.46 1576.76C4839.88 1576.76 4807.1 1565.83 4785.14 1543.97C4763.01 1522.12 4751.95 1491.86 4751.95 1453.19ZM4806.68 1428.48H4925.02C4927.56 1420.08 4928.82 1412.34 4928.82 1405.28C4928.82 1386.79 4924.18 1372.75 4914.89 1363.17C4905.59 1353.59 4892.16 1348.79 4874.59 1348.79C4853.65 1348.79 4837.6 1355.94 4826.45 1370.23C4815.3 1384.35 4808.71 1403.77 4806.68 1428.48ZM5011.69 1455.21C5011.69 1417.55 5022.67 1387.29 5044.63 1364.43C5066.42 1341.57 5095.82 1330.13 5132.81 1330.13C5149.54 1330.13 5166.77 1334.17 5184.51 1342.24V1218.17H5154.1L5150.55 1200.01L5209.09 1194.47L5232.15 1200.01V1542.46L5265.09 1553.05L5261.29 1571.21H5193.63L5185.52 1553.05C5179.1 1559.1 5170.99 1564.57 5161.2 1569.44C5151.57 1574.32 5141.26 1576.76 5130.28 1576.76C5090.92 1576.76 5061.35 1566.17 5041.59 1544.98C5021.65 1523.63 5011.69 1493.71 5011.69 1455.21ZM5064.9 1450.17C5064.9 1480.76 5071.07 1505.56 5083.4 1524.56C5095.73 1543.55 5112.37 1553.05 5133.32 1553.05C5152.92 1553.05 5169.98 1545.82 5184.51 1531.37V1367.96C5167.45 1358.55 5151.14 1353.84 5135.6 1353.84C5088.47 1353.84 5064.9 1385.95 5064.9 1450.17ZM5455.91 1256L5411.81 1239.35L5415.36 1218.17H5588.94C5613.78 1218.17 5634.56 1225.9 5651.28 1241.37C5668.01 1256.84 5676.37 1275.67 5676.37 1297.86C5676.37 1316.52 5670.46 1333.08 5658.63 1347.53C5646.97 1361.99 5632.11 1371.32 5614.03 1375.52V1377.54C5640.89 1377.54 5663.87 1387.04 5682.96 1406.04C5701.88 1424.87 5711.34 1447.65 5711.34 1474.38C5711.34 1501.78 5700.87 1524.81 5679.92 1543.47C5659.14 1561.96 5631.6 1571.21 5597.31 1571.21H5416.38L5412.32 1550.03L5455.91 1533.38V1256ZM5509.63 1239.35V1550.03H5582.61C5602.71 1550.03 5619.27 1542.13 5632.28 1526.32C5645.45 1510.69 5652.04 1491.52 5652.04 1468.83C5652.04 1446.3 5644.27 1426.97 5628.73 1410.83C5613.36 1394.69 5594.1 1386.62 5570.95 1386.62H5530.92V1365.44H5553.72C5571.12 1365.44 5586.07 1359.22 5598.57 1346.78C5610.91 1334.51 5617.07 1319.71 5617.07 1302.4C5617.07 1283.4 5611.67 1268.1 5600.85 1256.5C5590.04 1245.07 5572.98 1239.35 5549.67 1239.35H5509.63ZM5961.45 1571.21H5772.92V1552.04C5772.92 1538.6 5775.54 1525.65 5780.77 1513.21C5786.01 1500.6 5792.77 1489.42 5801.04 1479.67C5809.49 1469.75 5818.78 1460.09 5828.92 1450.67C5838.89 1441.26 5848.94 1431.93 5859.07 1422.68C5869.04 1413.27 5878.25 1403.85 5886.7 1394.44C5895.14 1385.02 5901.98 1374.52 5907.22 1362.92C5912.46 1351.15 5915.08 1339.04 5915.08 1326.6C5915.08 1308.95 5910.43 1294.41 5901.14 1282.98C5892.02 1271.71 5881.04 1266.08 5868.2 1266.08C5852.66 1266.08 5837.62 1269.61 5823.09 1276.67L5808.65 1321.56L5788.88 1317.53V1260.03C5815.4 1247.25 5842.43 1240.87 5869.97 1240.87C5901.22 1240.87 5925.3 1249.1 5942.19 1265.58C5959.25 1281.89 5967.79 1302.06 5967.79 1326.1C5967.79 1340.73 5965 1354.68 5959.42 1367.96C5954.02 1381.24 5946.84 1393.01 5937.88 1403.26C5929.1 1413.52 5919.3 1423.27 5908.49 1432.52C5897.68 1441.93 5886.61 1450.76 5875.29 1458.99C5864.14 1467.23 5853.75 1475.22 5844.12 1482.95C5834.66 1490.51 5826.39 1498.67 5819.29 1507.41C5812.36 1515.98 5807.97 1524.47 5806.11 1532.88H5930.03L5941.69 1496.57L5961.45 1500.6V1571.21ZM6066.36 1256L6022.27 1239.35L6025.82 1218.17H6199.65C6224.32 1218.17 6245.01 1225.9 6261.74 1241.37C6278.46 1256.84 6286.82 1275.67 6286.82 1297.86C6286.82 1316.52 6281 1333.08 6269.34 1347.53C6257.51 1361.99 6242.56 1371.32 6224.49 1375.52V1377.54C6251.35 1377.54 6274.32 1387.04 6293.41 1406.04C6312.33 1424.87 6321.79 1447.65 6321.79 1474.38C6321.79 1501.78 6311.4 1524.81 6290.62 1543.47C6269.68 1561.96 6242.05 1571.21 6207.76 1571.21H6026.83L6022.77 1550.03L6066.36 1533.38V1256ZM6120.08 1239.35V1550.03H6193.06C6213.17 1550.03 6229.81 1542.13 6242.98 1526.32C6255.99 1510.69 6262.5 1491.52 6262.5 1468.83C6262.5 1446.3 6254.73 1426.97 6239.18 1410.83C6223.81 1394.69 6204.55 1386.62 6181.41 1386.62H6141.37V1365.44H6164.17C6181.74 1365.44 6196.7 1359.22 6209.03 1346.78C6221.36 1334.51 6227.53 1319.71 6227.53 1302.4C6227.53 1283.4 6222.12 1268.1 6211.31 1256.5C6200.5 1245.07 6183.43 1239.35 6160.12 1239.35H6120.08ZM6492.59 1571.21L6488.28 1550.03L6532.12 1533.38L6561.77 1256L6517.68 1239.35L6521.48 1218.17H6612.96L6702.41 1479.42V1516.24L6814.67 1218.17H6908.93L6913.24 1239.35L6868.9 1256L6892.97 1533.38L6936.05 1550.03L6932.25 1571.21H6799.21L6795.41 1550.03L6838.74 1533.38L6816.19 1275.67L6704.44 1571.21L6679.35 1579.78L6580.27 1287.27L6553.91 1533.38L6596.99 1550.03L6593.19 1571.21H6492.59ZM6971.27 1510.18C6971.27 1500.27 6972.79 1491.36 6975.83 1483.45C6978.87 1475.38 6982.84 1468.58 6987.74 1463.03C6992.81 1457.48 6999.15 1452.6 7006.75 1448.4C7014.35 1444.03 7022.12 1440.67 7030.06 1438.32C7038.17 1435.79 7047.21 1433.78 7057.18 1432.26C7067.14 1430.58 7076.6 1429.57 7085.56 1429.24C7094.34 1428.73 7103.89 1428.48 7114.19 1428.48V1401.75C7114.19 1384.43 7109.63 1371.24 7100.51 1362.16C7091.39 1353.25 7079.05 1348.79 7063.51 1348.79C7045.94 1348.79 7031.58 1350.81 7020.43 1354.85L7009.79 1393.68L6991.54 1390.15V1348.29C7015.87 1336.19 7040.96 1330.13 7066.81 1330.13C7097.89 1330.13 7121.54 1338.12 7137.76 1354.09C7153.81 1369.89 7161.83 1392.84 7161.83 1422.93V1542.46L7194.77 1553.05L7191.23 1571.21H7123.82L7115.21 1553.05C7104.06 1561.63 7093.92 1567.76 7084.8 1571.46C7075.67 1574.99 7063 1576.76 7046.79 1576.76C7024.82 1576.76 7006.75 1570.96 6992.56 1559.36C6978.37 1547.76 6971.27 1531.37 6971.27 1510.18ZM7024.99 1505.14C7024.99 1521.78 7029.13 1533.89 7037.41 1541.45C7045.52 1549.19 7055.4 1553.05 7067.06 1553.05C7087.84 1553.05 7103.55 1543.81 7114.19 1525.31V1446.64C7083.11 1446.64 7060.47 1451.6 7046.28 1461.52C7032.09 1471.43 7024.99 1485.98 7024.99 1505.14ZM7223.66 1571.21L7220.12 1553.05L7253.06 1542.46V1353.84H7227.72L7224.17 1335.68L7282.96 1330.13L7300.7 1348.79C7323.17 1336.35 7344.11 1330.13 7363.54 1330.13C7379.93 1330.13 7394.97 1332.99 7408.65 1338.71V1390.15L7390.4 1393.68L7379.25 1357.87C7371.14 1355.18 7362.87 1353.84 7354.42 1353.84C7343.27 1353.84 7325.36 1358.38 7300.7 1367.46V1542.46L7334.15 1553.05L7330.09 1571.21H7223.66ZM7437.28 1571.21L7433.99 1553.05L7466.93 1542.46V1218.17H7441.59L7437.79 1200.01L7491.51 1194.47L7514.57 1200.01V1542.46L7547.51 1553.05L7543.71 1571.21H7437.28ZM7530.28 1441.09V1458.24L7596.93 1553.05L7593.13 1571.21H7677.26L7681.06 1553.05L7647.61 1542.46L7586.79 1456.22L7551.57 1446.64L7621 1380.57C7632.32 1369.81 7645.25 1362.24 7659.77 1357.87L7673.2 1353.84L7668.9 1335.68H7578.43L7574.63 1353.84L7610.87 1364.43L7530.28 1441.09ZM7706.4 1453.19C7706.4 1415.2 7717.8 1385.19 7740.61 1363.17C7763.25 1341.15 7792.73 1330.13 7829.05 1330.13C7858.95 1330.13 7883.36 1337.36 7902.28 1351.82C7921.37 1366.28 7930.92 1385.44 7930.92 1409.32C7930.92 1421.59 7927.96 1434.03 7922.05 1446.64H7760.12V1449.16C7760.12 1480.6 7767.05 1505.73 7780.9 1524.56C7794.75 1543.55 7814.86 1553.05 7841.21 1553.05C7865.54 1553.05 7889.7 1545.49 7913.69 1530.36L7925.34 1547C7914.7 1556.75 7901.69 1564.15 7886.32 1569.19C7870.95 1574.24 7854.81 1576.76 7837.92 1576.76C7794.5 1576.76 7761.73 1565.83 7739.6 1543.97C7717.47 1522.12 7706.4 1491.86 7706.4 1453.19ZM7761.14 1428.48H7879.73C7882.09 1420.08 7883.28 1412.34 7883.28 1405.28C7883.28 1386.79 7878.63 1372.75 7869.34 1363.17C7860.05 1353.59 7846.62 1348.79 7829.05 1348.79C7808.1 1348.79 7792.05 1355.94 7780.9 1370.23C7769.75 1384.35 7763.16 1403.77 7761.14 1428.48ZM7957.02 1353.84L7953.47 1335.68L7989.45 1324.59L8010.74 1271.63L8034.05 1277.18V1335.68H8100.45L8096.9 1353.84H8034.05V1515.73C8034.05 1527.33 8036.76 1536.41 8042.16 1542.97C8047.4 1549.69 8053.99 1553.05 8061.93 1553.05C8076.96 1553.05 8090.31 1546.66 8101.97 1533.89L8113.62 1547.51C8104.16 1557.76 8095.04 1565.24 8086.26 1569.95C8077.64 1574.49 8066.66 1576.76 8053.31 1576.76C8031.01 1576.76 8014.29 1570.79 8003.14 1558.85C7991.99 1546.92 7986.41 1531.2 7986.41 1511.7V1353.84H7957.02ZM8118.44 1353.84L8114.38 1335.68L8175.71 1330.13L8196.49 1348.79C8204.76 1344.26 8215.24 1339.97 8227.91 1335.93C8240.41 1332.07 8251.39 1330.13 8260.85 1330.13C8297.85 1330.13 8325.13 1339.72 8342.7 1358.88C8360.1 1377.88 8368.8 1406.96 8368.8 1446.13C8368.8 1483.45 8356.3 1513.63 8331.3 1536.66C8306.3 1559.69 8274.28 1571.21 8235.26 1571.21H8212.7V1552.55H8233.99C8244.13 1552.55 8254.01 1550.03 8263.64 1544.98C8273.27 1539.77 8281.88 1532.63 8289.49 1523.55C8297.26 1514.47 8303.42 1502.87 8307.99 1488.75C8312.72 1474.63 8315.08 1459.25 8315.08 1442.6C8315.08 1420.24 8312.72 1402.42 8307.99 1389.14C8303.25 1375.86 8296.75 1366.61 8288.47 1361.4C8280.19 1356.36 8269.55 1353.84 8256.54 1353.84C8247.42 1353.84 8238.55 1354.93 8229.94 1357.12C8221.32 1359.3 8210.17 1362.75 8196.49 1367.46V1663L8229.94 1673.59L8226.14 1691.75H8120.21L8115.9 1673.59L8148.85 1663V1353.84H8118.44ZM8412.89 1571.21L8409.35 1553.05L8442.29 1542.46V1218.17H8417.2L8413.4 1200.01L8467.12 1194.47L8490.18 1200.01V1542.46L8523.13 1553.05L8519.32 1571.21H8412.89ZM8558.6 1510.18C8558.6 1500.27 8560.12 1491.36 8563.16 1483.45C8566.2 1475.38 8570.26 1468.58 8575.33 1463.03C8580.4 1457.48 8586.73 1452.6 8594.33 1448.4C8601.94 1444.03 8609.71 1440.67 8617.65 1438.32C8625.59 1435.79 8634.62 1433.78 8644.76 1432.26C8654.73 1430.58 8664.1 1429.57 8672.89 1429.24C8681.84 1428.73 8691.47 1428.48 8701.78 1428.48V1401.75C8701.78 1384.43 8697.13 1371.24 8687.84 1362.16C8678.72 1353.25 8666.39 1348.79 8650.84 1348.79C8633.44 1348.79 8619.17 1350.81 8608.02 1354.85L8597.37 1393.68L8578.88 1390.15V1348.29C8603.37 1336.19 8628.46 1330.13 8654.14 1330.13C8685.39 1330.13 8709.04 1338.12 8725.09 1354.09C8741.31 1369.89 8749.42 1392.84 8749.42 1422.93V1542.46L8782.36 1553.05L8778.56 1571.21H8711.41L8702.79 1553.05C8691.47 1561.63 8681.25 1567.76 8672.13 1571.46C8663.18 1574.99 8650.59 1576.76 8634.37 1576.76C8612.24 1576.76 8594.08 1570.96 8579.89 1559.36C8565.7 1547.76 8558.6 1531.37 8558.6 1510.18ZM8612.58 1505.14C8612.58 1521.78 8616.63 1533.89 8624.74 1541.45C8633.02 1549.19 8642.99 1553.05 8654.64 1553.05C8675.25 1553.05 8690.97 1543.81 8701.78 1525.31V1446.64C8670.69 1446.64 8648.05 1451.6 8633.86 1461.52C8619.67 1471.43 8612.58 1485.98 8612.58 1505.14ZM8807.7 1453.7C8807.7 1415.2 8819.36 1384.94 8842.67 1362.92C8866.15 1341.06 8897.83 1330.13 8937.7 1330.13C8962.7 1330.13 8987.36 1336.19 9011.69 1348.29V1390.15L8993.7 1393.68L8984.07 1357.37C8970.22 1351.65 8955.27 1348.79 8939.22 1348.79C8914.05 1348.79 8894.7 1357.12 8881.19 1373.76C8867.67 1390.23 8860.92 1413.52 8860.92 1443.61C8860.92 1456.39 8861.59 1467.99 8862.94 1478.41C8864.29 1488.67 8866.83 1498.58 8870.55 1508.17C8874.09 1517.75 8878.74 1525.73 8884.48 1532.12C8890.4 1538.51 8898 1543.55 8907.29 1547.25C8916.58 1551.12 8927.39 1553.05 8939.72 1553.05C8951.89 1553.05 8963.12 1551.12 8973.43 1547.25C8983.73 1543.39 8994.88 1537.75 9006.88 1530.36L9018.53 1547C8996.57 1566.84 8969.29 1576.76 8936.68 1576.76C8893.44 1576.76 8861.09 1566 8839.63 1544.48C8818.34 1522.79 8807.7 1492.53 8807.7 1453.7ZM9049.7 1453.19C9049.7 1415.2 9061.02 1385.19 9083.66 1363.17C9106.47 1341.15 9136.03 1330.13 9172.35 1330.13C9202.25 1330.13 9226.66 1337.36 9245.59 1351.82C9264.51 1366.28 9273.97 1385.44 9273.97 1409.32C9273.97 1421.59 9271.09 1434.03 9265.35 1446.64H9103.42V1449.16C9103.42 1480.6 9110.35 1505.73 9124.2 1524.56C9138.06 1543.55 9158.16 1553.05 9184.51 1553.05C9208.67 1553.05 9232.83 1545.49 9256.99 1530.36L9268.65 1547C9257.83 1556.75 9244.83 1564.15 9229.62 1569.19C9214.25 1574.24 9198.11 1576.76 9181.22 1576.76C9137.63 1576.76 9104.86 1565.83 9082.9 1543.97C9060.77 1522.12 9049.7 1491.86 9049.7 1453.19ZM9104.44 1428.48H9222.78C9225.31 1420.08 9226.58 1412.34 9226.58 1405.28C9226.58 1386.79 9221.93 1372.75 9212.64 1363.17C9203.35 1353.59 9189.92 1348.79 9172.35 1348.79C9151.4 1348.79 9135.35 1355.94 9124.2 1370.23C9113.05 1384.35 9106.47 1403.77 9104.44 1428.48Z" fill="url(#paint2_linear)"/>
<path d="M2298.36 1019.82C2298.36 1019.82 2326.28 1019.82 2375.15 1023.31C2427.51 1023.31 2500.81 1026.8 2595.05 1026.8C2787.02 1030.29 3059.27 1037.27 3387.37 1040.76C3551.42 1044.25 3729.43 1044.25 3914.43 1047.74C4102.91 1047.74 4298.37 1051.23 4504.31 1051.23C4710.24 1051.23 4923.16 1054.72 5136.07 1054.72C5352.48 1054.72 5568.89 1054.72 5788.78 1054.72C6005.19 1054.72 6225.09 1054.72 6441.49 1054.72C6657.9 1054.72 6867.32 1051.23 7073.26 1051.23C7481.64 1047.74 7865.59 1044.25 8190.2 1040.76C8518.29 1037.27 8790.55 1030.29 8982.52 1026.8C9076.76 1026.8 9153.55 1023.31 9205.91 1023.31C9251.28 1019.82 9279.21 1019.82 9279.21 1019.82C9279.21 1019.82 9251.28 1019.82 9202.42 1016.33C9150.06 1016.33 9076.76 1012.84 8982.52 1012.84C8790.55 1009.35 8518.29 1002.37 8190.2 998.879C7862.1 995.389 7481.64 991.899 7073.26 988.409C6867.32 988.409 6657.9 984.918 6441.49 984.918C6225.09 984.918 6008.68 984.918 5788.78 984.918C5568.89 984.918 5352.48 984.918 5136.07 984.918C4919.67 984.918 4710.24 988.409 4504.31 988.409C4298.37 988.409 4102.91 991.899 3914.43 991.899C3729.43 995.389 3551.42 998.879 3390.86 998.879C3062.76 1002.37 2790.51 1009.35 2598.54 1012.84C2504.3 1012.84 2427.51 1016.33 2378.64 1016.33C2326.28 1019.82 2298.36 1019.82 2298.36 1019.82Z" fill="#264F72"/>
<path d="M9506.85 74.8702C9608.13 74.8702 9690.61 157.353 9690.61 258.62C9690.61 359.886 9608.13 442.37 9506.85 442.37C9405.58 442.37 9323.09 359.886 9323.09 258.62C9323.09 157.353 9405.58 74.8702 9506.85 74.8702ZM9506.85 54.4536C9394.14 54.4536 9302.67 145.92 9302.67 258.62C9302.67 371.32 9394.14 462.786 9506.85 462.786C9619.56 462.786 9711.03 371.32 9711.03 258.62C9711.03 145.92 9619.56 54.4536 9506.85 54.4536Z" fill="black"/>
<path d="M9418.03 333.345V219.42H9377.2V196.145H9486.43V219.42H9445.8V333.549L9418.03 333.345Z" fill="black"/>
<path d="M9503.79 333.345V196.145H9545.24L9570.15 289.857L9594.85 196.145H9636.51V333.345H9610.78V225.341L9583.62 333.345H9556.88L9529.72 225.341V333.345H9503.79Z" fill="black"/>
</g>
<defs>
<linearGradient id="paint0_linear" x1="364.53" y1="700.022" x2="364.53" y2="207.883" gradientUnits="userSpaceOnUse">
<stop stop-color="#42E695"/>
<stop offset="1" stop-color="#3BB2B8"/>
</linearGradient>
<linearGradient id="paint1_linear" x1="150.164" y1="1764.4" x2="150.164" y2="1272.26" gradientUnits="userSpaceOnUse">
<stop stop-color="#42E695"/>
<stop offset="1" stop-color="#3BB2B8"/>
</linearGradient>
<linearGradient id="paint2_linear" x1="2293.15" y1="1194.47" x2="2293.15" y2="1774.46" gradientUnits="userSpaceOnUse">
<stop stop-color="#42E695"/>
<stop offset="1" stop-color="#3BB2B8"/>
</linearGradient>
<clipPath id="clip0">
<rect width="9768" height="1764" fill="white"/>
</clipPath>
</defs>
</svg>
